<svg id="wh-oval-61dd9ed16bdb2" version="1.1" xmlns="http://www.w3.org/2000/svg" xmlns:xlink="http://www.w3.org/1999/xlink" x="0px" y="0px" viewBox="0 0 343 243" style="enable-background:new 0 0 343 243;" xml:space="preserve">
<style type="text/css">
	#wh-oval-61dd9ed16bdb2 .st0{fill:#0A2458;}
	#wh-oval-61dd9ed16bdb2 .st1{fill-rule:evenodd;clip-rule:evenodd;fill:#FFFFFF;}
	#wh-oval-61dd9ed16bdb2 .st2{opacity:0.5;fill:#FFFFFF;}
	#wh-oval-61dd9ed16bdb2 .st3{fill:#FFFFFF;}
</style>
<g>
	<ellipse class="st0" cx="171.5" cy="121.5" rx="168.6" ry="118.7"></ellipse>
	<path class="st1" d="M171.5,229.5c87.3,0,158-48.4,158-108s-70.7-108-158-108s-158,48.4-158,108S84.2,229.5,171.5,229.5z
		 M290.8,209c-31.1,21.3-73.3,34-119.3,34s-88.2-12.7-119.3-34C21.1,187.8,0,157.1,0,121.5S21.1,55.2,52.2,34
		C83.3,12.7,125.5,0,171.5,0s88.2,12.7,119.3,34c31,21.2,52.2,51.9,52.2,87.5S321.8,187.8,290.8,209z"></path>
</g>
<g>
	<g>
		<rect x="168.3" y="134.4" class="st2" width="2.7" height="8.5"></rect>
		<rect x="168.3" y="143.9" class="st2" width="2.7" height="8.5"></rect>
		<rect x="172" y="143.9" class="st2" width="2.7" height="8.5"></rect>
		<rect x="172" y="134.4" class="st2" width="2.7" height="8.4"></rect>
		<path class="st2" d="M212.5,92.7h-81.9c-0.6,0-1.1,0.5-1.1,1.1v66c0,0.6,0.5,1.1,1.1,1.1h81.8c0.7,0,1.2-0.5,1.2-1.2v-66
			C213.6,93.2,213.1,92.7,212.5,92.7z M191.8,118.7c0-0.2,0.1-0.2,0.2-0.3c0.2-0.2,0.4-0.7,0.4-1.2v-7.2c0-0.4-0.2-0.8-0.4-1.2
			c-0.1-0.1-0.2-0.2-0.2-0.3v-1.4c0-0.2,0.2-0.3,0.3-0.3h9.1c0.2,0,0.3,0.2,0.3,0.3v1.4c0,0.2-0.1,0.2-0.2,0.3
			c-0.2,0.3-0.4,0.7-0.4,1.2v7.1c0,0.4,0.2,0.8,0.4,1.2c0.1,0.1,0.2,0.2,0.2,0.3v3.2c0,0.2-0.2,0.3-0.3,0.3h-9.1
			c-0.2,0-0.3-0.2-0.3-0.3V118.7z M166.6,118.7c0-0.2,0.1-0.2,0.2-0.3c0.2-0.2,0.4-0.7,0.4-1.2v-7.1c0-0.4-0.2-0.8-0.4-1.2
			c-0.1-0.1-0.2-0.2-0.2-0.3v-1.4c0-0.2,0.2-0.3,0.3-0.3h9.1c0.2,0,0.3,0.2,0.3,0.3v1.4c0,0.2-0.1,0.2-0.2,0.3
			c-0.2,0.2-0.4,0.7-0.4,1.2v7.2c0,0.4,0.2,0.8,0.4,1.2c0.1,0.1,0.2,0.2,0.2,0.3v3.2c0,0.2-0.2,0.3-0.3,0.3h-9.1
			c-0.2,0-0.3-0.2-0.3-0.3V118.7z M141.5,118.7c0-0.2,0.1-0.2,0.2-0.3c0.2-0.2,0.4-0.7,0.4-1.2v-7.1c0-0.4-0.2-0.8-0.4-1.2
			c-0.1-0.1-0.2-0.2-0.2-0.3v-1.4c0-0.2,0.2-0.3,0.3-0.3h9.1c0.2,0,0.3,0.2,0.3,0.3v1.4c0,0.2-0.1,0.2-0.2,0.3
			c-0.2,0.2-0.4,0.7-0.4,1.2v7.2c0,0.4,0.2,0.8,0.4,1.2c0.1,0.1,0.2,0.2,0.2,0.3v3.2c0,0.2-0.2,0.3-0.3,0.3h-9.1
			c-0.2,0-0.3-0.2-0.3-0.3V118.7z M151.3,131.9c0,0.2-0.1,0.2-0.2,0.3c-0.2,0.2-0.4,0.7-0.4,1.2v8.7c0,0.4,0.2,0.8,0.4,1.2
			c0.1,0.1,0.2,0.2,0.2,0.3v3.2c0,0.2-0.2,0.3-0.3,0.3h-9.1c-0.2,0-0.3-0.2-0.3-0.3v-3.2c0-0.2,0.1-0.2,0.2-0.3
			c0.2-0.2,0.4-0.7,0.4-1.2v-8.7c0-0.4-0.2-0.8-0.4-1.2c-0.1-0.1-0.2-0.2-0.2-0.3v-1.4c0-0.2,0.2-0.3,0.3-0.3h9.1
			c0.2,0,0.3,0.2,0.3,0.3V131.9z M151.8,127.9c-0.1,0.2-0.2,0.2-0.2,0.2h-10c-0.2,0-0.3-0.1-0.4-0.2c-0.1-0.2-0.1-0.4,0.1-0.5
			c1.5-1.2,3.3-1.9,5.2-1.9c1.9,0,3.7,0.7,5.2,1.9C151.8,127.5,151.9,127.7,151.8,127.9z M176.3,154.1c-3.2,0-6.4,0-9.6,0
			c-0.2,0-0.5-0.2-0.5-0.5c0-6.9,0-13.7,0-20.7c0.1-6.9,10.4-6.9,10.5,0c0,6.9,0,13.7,0.1,20.7C176.8,153.9,176.5,154.1,176.3,154.1
			z M201.5,131.9c0,0.2-0.1,0.2-0.2,0.3c-0.2,0.2-0.4,0.7-0.4,1.2v8.7c0,0.4,0.2,0.8,0.4,1.2c0.1,0.1,0.2,0.2,0.2,0.3v3.2
			c0,0.2-0.2,0.3-0.3,0.3h-9.1c-0.2,0-0.3-0.2-0.3-0.3v-3.2c0-0.2,0.1-0.2,0.2-0.3c0.2-0.2,0.4-0.7,0.4-1.2v-8.7
			c0-0.4-0.2-0.8-0.4-1.2c-0.1-0.1-0.2-0.2-0.2-0.3v-1.4c0-0.2,0.2-0.3,0.3-0.3h9.1c0.2,0,0.3,0.2,0.3,0.3V131.9z M202,127.9
			c-0.1,0.2-0.2,0.2-0.2,0.2h-10c-0.2,0-0.3-0.1-0.4-0.2c-0.1-0.2-0.1-0.4,0.1-0.5c1.5-1.2,3.3-1.9,5.2-1.9c1.9,0,3.7,0.7,5.2,1.9
			C202,127.5,202.1,127.7,202,127.9z"></path>
	</g>
	<path class="st3" d="M192.6,72.3l2.4,1h20.3l0.8-1.1c0.2-0.2,0-0.4-0.2-0.4h-23.2C192.4,71.8,192.3,72.3,192.6,72.3z"></path>
	<path class="st3" d="M222.2,79.1v3.1c0,0.2,0.2,0.4,0.3,0.4h7.2c0.2,0,0.3-0.2,0.4-0.4v-3.1l1.2-1.7c0.2-0.2,0-0.6-0.2-0.6h-10
		c-0.3,0-0.5,0.3-0.2,0.6L222.2,79.1z"></path>
	<path class="st3" d="M215.1,166.4h-40h-7.3h-39.9c-0.2,0-0.5,0.2-0.5,0.5v3.7c0,0.2,0.2,0.5,0.5,0.5h40h7.3h40
		c0.2,0,0.5-0.2,0.5-0.5v-3.7C215.6,166.6,215.4,166.4,215.1,166.4z"></path>
	<path class="st3" d="M197.3,74.3l17.5,6.8c0.2,0.1,0.4-0.1,0.4-0.2v-2.1c0-0.1,0-0.1-0.1-0.2l-0.3-0.5c0-0.1-0.1-0.1-0.1-0.2v-3.7
		L197.3,74.3L197.3,74.3z"></path>
	<path class="st3" d="M127.7,73.3H148l2.4-1c0.2-0.1,0.2-0.5-0.1-0.5h-23.2c-0.2,0-0.3,0.2-0.2,0.4L127.7,73.3z"></path>
	<path class="st3" d="M112.8,79.1v3.1c0,0.2,0.2,0.4,0.4,0.4h7.2c0.2,0,0.3-0.2,0.3-0.4v-3.1l1.2-1.7c0.2-0.2,0-0.6-0.2-0.6h-10
		c-0.3,0-0.5,0.3-0.2,0.6L112.8,79.1z"></path>
	<path class="st3" d="M293.8,153.5h-79.4c-0.2-0.7-0.5-1.3-0.7-2h-7.8c-0.2,0-0.4,0.2-0.5,0.4c-0.2,0.6-0.4,1.2-0.7,1.8
		c-0.2,0.6-0.6,1.2-1,1.7v3.2h-14.1v-3.2c-0.7-1.2-1.2-2.3-1.6-3.6c-0.1-0.2-0.2-0.4-0.5-0.4H180c-0.2,0-0.4,0.2-0.5,0.4
		c-0.3,1.2-0.8,2.4-1.6,3.6v3.2h-5h-2.7h-5v-3.2c-0.7-1.1-1.2-2.3-1.6-3.6c-0.1-0.2-0.2-0.4-0.5-0.4h-7.5c-0.2,0-0.4,0.2-0.5,0.4
		c-0.3,1.2-0.9,2.4-1.6,3.6v3.2h-14.1v-3.2c-0.3-0.6-0.7-1.2-1-1.7c-0.2-0.6-0.5-1.2-0.7-1.8c-0.1-0.2-0.2-0.4-0.5-0.4h-7.8
		c-0.2,0.7-0.4,1.3-0.7,2H49.2c-0.4,0-0.7,0.3-0.7,0.7v6.8c0,0.4,0.3,0.7,0.7,0.7h78.2v2.6c0,0.4,0.3,0.7,0.7,0.7h42.1h2.7H215
		c0.4,0,0.7-0.3,0.7-0.7v-2.6h78.2c0.4,0,0.7-0.3,0.7-0.7v-6.8C294.5,153.9,294.2,153.5,293.8,153.5z"></path>
	<path class="st3" d="M128.2,78.3l-0.3,0.5c0,0.1-0.1,0.1-0.1,0.2v2.1c0,0.2,0.2,0.3,0.4,0.2l17.5-6.8h-17.4L128.2,78.3
		C128.3,78.2,128.3,78.2,128.2,78.3z"></path>
	<path class="st3" d="M187.5,107.8c0-0.2,0-0.5,0-0.7c0-3.7,0-7.1,0-7.1c0.2-1.2,0.5-2.3,1-3.5H179c0.5,1.1,0.8,2.2,1,3.5V119v3.8
		v26.5v0.1c0,0.4,0.3,0.7,0.7,0.7h6.2c0.4,0,0.7-0.3,0.7-0.7c0,0,0-26.1,0-40.4C187.5,108.6,187.5,108.2,187.5,107.8z"></path>
	<path class="st3" d="M163.1,105.6c0.2-6.7,0.5-7.8,1-9h-9.6c0.5,1.1,0.8,2.2,1,3.5c0,0,0,1.1,0,3c0,14.2,0,46.4,0,46.4
		c0,0.4,0.3,0.7,0.7,0.7h6.2c0.4,0,0.7-0.3,0.7-0.7v-0.1v-27v-3.3L163.1,105.6L163.1,105.6z"></path>
	<path class="st3" d="M56.4,87.7c0-0.3,0.3-0.7,0.7-0.7h11.6c0.4,0,0.7,0.2,0.7,0.7v2.9c0,0.3-0.3,0.7-0.7,0.7H57.1
		c-0.4,0-0.7-0.2-0.7-0.7V87.7z M75.2,87.7c0-0.3,0.3-0.7,0.7-0.7h11.6c0.4,0,0.7,0.2,0.7,0.7v2.9c0,0.3-0.3,0.7-0.7,0.7H75.8
		c-0.4,0-0.7-0.2-0.7-0.7L75.2,87.7L75.2,87.7z M93.9,87.7c0-0.3,0.3-0.7,0.7-0.7h11.6c0.4,0,0.7,0.2,0.7,0.7v2.9
		c0,0.3-0.3,0.7-0.7,0.7H94.6c-0.4,0-0.7-0.2-0.7-0.7V87.7z M112.6,87.7c0-0.3,0.3-0.7,0.7-0.7h13.5c0.4,0,0.7,0.2,0.7,0.7v1.9h87.8
		v-1.8c0-0.3,0.3-0.7,0.7-0.7h13.5c0.4,0,0.7,0.2,0.7,0.7v2.9c0,0.3-0.3,0.7-0.7,0.7H113.3c-0.4,0-0.7-0.2-0.7-0.7V87.7z M135,83.7
		l36.5-14.7L208,83.7h-6.1l-15.2-6.1l-15.2-6.1l-15.2,6.1L141,83.7H135z M236.1,87.7c0-0.3,0.3-0.7,0.7-0.7h11.6
		c0.4,0,0.7,0.2,0.7,0.7v2.9c0,0.3-0.3,0.7-0.7,0.7h-11.6c-0.4,0-0.7-0.2-0.7-0.7V87.7z M254.8,87.7c0-0.3,0.3-0.7,0.7-0.7h11.6
		c0.4,0,0.7,0.2,0.7,0.7v2.9c0,0.3-0.3,0.7-0.7,0.7h-11.6c-0.4,0-0.7-0.2-0.7-0.7V87.7z M273.6,87.7c0-0.3,0.3-0.7,0.7-0.7h11.6
		c0.4,0,0.7,0.2,0.7,0.7v2.9c0,0.3-0.3,0.7-0.7,0.7h-11.6c-0.4,0-0.7-0.2-0.7-0.7V87.7z M218.5,127.6l5.2-2.2c0.1,0,0.1,0,0.2,0
		s0.1,0,0.2,0l5.2,2.2c0.2,0.1,0.2,0.2,0.2,0.4c0,0.2-0.2,0.2-0.3,0.2h-10.5c-0.2,0-0.3-0.1-0.3-0.2
		C218.2,127.8,218.3,127.6,218.5,127.6z M219,118.7c0-0.1,0.1-0.2,0.2-0.3c0.2-0.3,0.4-0.7,0.4-1.2v-7.2c0-0.5-0.2-0.9-0.4-1.2
		c-0.1-0.1-0.2-0.2-0.2-0.3v-1.4c0-0.2,0.2-0.3,0.3-0.3h9.1c0.2,0,0.3,0.2,0.3,0.3v1.4c0,0.1-0.1,0.2-0.2,0.3
		c-0.2,0.3-0.4,0.7-0.4,1.2v7.1c0,0.5,0.2,0.9,0.4,1.2c0.1,0.1,0.2,0.2,0.2,0.3v3.2c0,0.2-0.2,0.3-0.3,0.3h-9.1
		c-0.2,0-0.3-0.2-0.3-0.3V118.7z M237.3,127.4c0.2-0.2,0.3-0.2,0.5-0.4c1.4-1,3-1.5,4.7-1.5c1.9,0,3.7,0.7,5.2,1.9l0.1,0.1
		c0.1,0.1,0.1,0.2,0.1,0.3s-0.1,0.2-0.2,0.2c0,0,0,0-0.1,0c0,0,0,0-0.1,0h-0.1h-10c-0.1,0-0.2-0.1-0.2-0.1c-0.1-0.1-0.1-0.1-0.1-0.2
		C237.2,127.7,237.2,127.5,237.3,127.4z M237.7,118.7c0-0.1,0.1-0.2,0.2-0.3c0.2-0.3,0.4-0.7,0.4-1.2v-7.2c0-0.5-0.2-0.9-0.4-1.2
		c-0.1-0.1-0.2-0.2-0.2-0.3v-1.4c0-0.2,0.2-0.3,0.3-0.3h9.1c0.2,0,0.3,0.2,0.3,0.3v1.4c0,0.1-0.1,0.2-0.2,0.3
		c-0.2,0.3-0.4,0.7-0.4,1.2v7.1c0,0.5,0.2,0.9,0.4,1.2c0.1,0.1,0.2,0.2,0.2,0.3v3.2c0,0.2-0.2,0.3-0.3,0.3H238
		c-0.2,0-0.3-0.2-0.3-0.3V118.7z M255.9,127.6l5.3-2.2c0.1,0,0.1,0,0.2,0h0.1c0,0,0,0,0.1,0l5.2,2.2c0.1,0,0.1,0.1,0.2,0.1
		c0.1,0.1,0.1,0.2,0.1,0.2c0,0.1-0.1,0.2-0.2,0.2c-0.1,0-0.1,0.1-0.2,0.1h-10.5c-0.1,0-0.2,0-0.2-0.1c-0.1,0-0.1-0.1-0.2-0.2V128
		C255.7,127.9,255.7,127.7,255.9,127.6z M256.5,118.7c0-0.1,0.1-0.2,0.2-0.3c0.2-0.3,0.4-0.7,0.4-1.2v-7.2c0-0.5-0.2-0.9-0.4-1.2
		c-0.1-0.1-0.2-0.2-0.2-0.3v-1.4c0-0.2,0.2-0.3,0.3-0.3h9.1c0.2,0,0.3,0.2,0.3,0.3v1.4c0,0.1-0.1,0.2-0.2,0.3
		c-0.2,0.3-0.4,0.7-0.4,1.2v7.1c0,0.5,0.2,0.9,0.4,1.2c0.1,0.1,0.2,0.2,0.2,0.3v3.2c0,0.2-0.2,0.3-0.3,0.3h-9.1
		c-0.2,0-0.3-0.2-0.3-0.3V118.7z M274.8,127.4c0.2-0.2,0.3-0.2,0.5-0.4c1.4-1,3-1.5,4.7-1.5c1.9,0,3.7,0.7,5.2,1.9l0.1,0.1
		c0.1,0.1,0.1,0.2,0.1,0.3s-0.1,0.2-0.2,0.2c0,0,0,0-0.1,0c0,0,0,0-0.1,0H285h-10c-0.1,0-0.2-0.1-0.2-0.1c-0.1-0.1-0.1-0.1-0.1-0.2
		C274.6,127.7,274.7,127.5,274.8,127.4z M275.2,118.7c0-0.1,0.1-0.2,0.2-0.3c0.2-0.3,0.4-0.7,0.4-1.2v-7.2c0-0.5-0.2-0.9-0.4-1.2
		c-0.1-0.1-0.2-0.2-0.2-0.3v-1.4c0-0.2,0.2-0.3,0.3-0.3h9.1c0.2,0,0.3,0.2,0.3,0.3v1.4c0,0.1-0.1,0.2-0.2,0.3
		c-0.2,0.3-0.4,0.7-0.4,1.2v7.1c0,0.5,0.2,0.9,0.4,1.2c0.1,0.1,0.2,0.2,0.2,0.3v3.2c0,0.2-0.2,0.3-0.3,0.3h-9.1
		c-0.2,0-0.3-0.2-0.3-0.3V118.7z M284.9,131.9c0,0.1-0.1,0.2-0.2,0.3c-0.2,0.3-0.4,0.7-0.4,1.2v8.7c0,0.5,0.2,0.9,0.4,1.2
		c0.1,0.1,0.2,0.2,0.2,0.3v3.2c0,0.2-0.2,0.3-0.3,0.3h-9.1c-0.2,0-0.3-0.2-0.3-0.3v-3.2c0-0.1,0.1-0.2,0.2-0.3
		c0.2-0.3,0.4-0.7,0.4-1.2v-8.7c0-0.5-0.2-0.9-0.4-1.2c-0.1-0.1-0.2-0.2-0.2-0.3v-1.4c0-0.2,0.2-0.3,0.3-0.3h9.1
		c0.2,0,0.3,0.2,0.3,0.3V131.9z M266.2,131.9c0,0.1-0.1,0.2-0.2,0.3c-0.2,0.3-0.4,0.7-0.4,1.2v8.7c0,0.5,0.2,0.9,0.4,1.2
		c0.1,0.1,0.2,0.2,0.2,0.3v3.2c0,0.2-0.2,0.3-0.3,0.3h-9.1c-0.2,0-0.3-0.2-0.3-0.3v-3.2c0-0.1,0.1-0.2,0.2-0.3
		c0.2-0.3,0.4-0.7,0.4-1.2v-8.7c0-0.5-0.2-0.9-0.4-1.2c-0.1-0.1-0.2-0.2-0.2-0.3v-1.4c0-0.2,0.2-0.3,0.3-0.3h9.1
		c0.2,0,0.3,0.2,0.3,0.3V131.9z M247.4,131.9c0,0.1-0.1,0.2-0.2,0.3c-0.2,0.3-0.4,0.7-0.4,1.2v8.7c0,0.5,0.2,0.9,0.4,1.2
		c0.1,0.1,0.2,0.2,0.2,0.3v3.2c0,0.2-0.2,0.3-0.3,0.3H238c-0.2,0-0.3-0.2-0.3-0.3v-3.2c0-0.1,0.1-0.2,0.2-0.3
		c0.2-0.3,0.4-0.7,0.4-1.2v-8.7c0-0.5-0.2-0.9-0.4-1.2c-0.1-0.1-0.2-0.2-0.2-0.3v-1.4c0-0.2,0.2-0.3,0.3-0.3h9.1
		c0.2,0,0.3,0.2,0.3,0.3V131.9z M228.7,131.9c0,0.1-0.1,0.2-0.2,0.3c-0.2,0.3-0.4,0.7-0.4,1.2v8.7c0,0.5,0.2,0.9,0.4,1.2
		c0.1,0.1,0.2,0.2,0.2,0.3v3.2c0,0.2-0.2,0.3-0.3,0.3h-9.1c-0.2,0-0.3-0.2-0.3-0.3v-3.2c0-0.1,0.1-0.2,0.2-0.3
		c0.2-0.3,0.4-0.7,0.4-1.2v-8.7c0-0.5-0.2-0.9-0.4-1.2c-0.1-0.1-0.2-0.2-0.2-0.3v-1.4c0-0.2,0.2-0.3,0.3-0.3h9.1
		c0.2,0,0.3,0.2,0.3,0.3V131.9z M124.4,128.3h-10.5c-0.2,0-0.3-0.1-0.3-0.2c0-0.2,0.1-0.3,0.2-0.4l5.2-2.2c0.1,0,0.1,0,0.2,0
		c0.1,0,0.1,0,0.2,0l5.2,2.2c0.2,0.1,0.2,0.2,0.2,0.4C124.7,128.2,124.6,128.3,124.4,128.3z M124,131.9c0,0.1-0.1,0.2-0.2,0.3
		c-0.2,0.3-0.4,0.7-0.4,1.2v8.7c0,0.5,0.2,0.9,0.4,1.2c0.1,0.1,0.2,0.2,0.2,0.3v3.2c0,0.2-0.2,0.3-0.3,0.3h-9.1
		c-0.2,0-0.3-0.2-0.3-0.3v-3.2c0-0.1,0.1-0.2,0.2-0.3c0.2-0.3,0.4-0.7,0.4-1.2v-8.7c0-0.5-0.2-0.9-0.4-1.2c-0.1-0.1-0.2-0.2-0.2-0.3
		v-1.4c0-0.2,0.2-0.3,0.3-0.3h9.1c0.2,0,0.3,0.2,0.3,0.3V131.9z M105.8,127.9c0,0.1-0.1,0.1-0.1,0.2l-0.1,0.1
		c-0.1,0-0.1,0.1-0.2,0.1h-10c-0.1,0-0.1,0-0.2-0.1c-0.2-0.1-0.2-0.2-0.2-0.2s0-0.2,0-0.3c0,0,0-0.1,0.1-0.1c0,0,0-0.1,0.1-0.1
		c0.3-0.3,0.7-0.6,1.2-0.8c0,0,0.1,0,0.1-0.1c1.2-0.7,2.6-1.1,4-1.1c1.9,0,3.7,0.7,5.2,1.9C105.8,127.5,105.9,127.7,105.8,127.9z
		 M105.3,131.9c0,0.1-0.1,0.2-0.2,0.3c-0.2,0.3-0.4,0.7-0.4,1.2v8.7c0,0.5,0.2,0.9,0.4,1.2c0.1,0.1,0.2,0.2,0.2,0.3v3.2
		c0,0.2-0.2,0.3-0.3,0.3h-9.1c-0.2,0-0.3-0.2-0.3-0.3v-3.2c0-0.1,0.1-0.2,0.2-0.3c0.2-0.3,0.4-0.7,0.4-1.2v-8.7
		c0-0.5-0.2-0.9-0.4-1.2c-0.1-0.1-0.2-0.2-0.2-0.3v-1.4c0-0.2,0.2-0.3,0.3-0.3h9.1c0.2,0,0.3,0.2,0.3,0.3V131.9z M87.1,128.2
		c-0.1,0-0.1,0.1-0.2,0.1H76.4c-0.1,0-0.1,0-0.2,0s-0.2-0.1-0.2-0.2V128c0-0.2,0.1-0.3,0.2-0.4l5.2-2.2c0,0,0,0,0.1,0h0.1
		c0.1,0,0.1,0,0.2,0l5.2,2.2c0.2,0.1,0.2,0.2,0.2,0.4C87.2,128.1,87.2,128.2,87.1,128.2z M86.6,131.9c0,0.1-0.1,0.2-0.2,0.3
		c-0.2,0.3-0.4,0.7-0.4,1.2v8.7c0,0.5,0.2,0.9,0.4,1.2c0.1,0.1,0.2,0.2,0.2,0.3v3.2c0,0.2-0.2,0.3-0.3,0.3h-9.1
		c-0.2,0-0.3-0.2-0.3-0.3v-3.2c0-0.1,0.1-0.2,0.2-0.3c0.2-0.3,0.4-0.7,0.4-1.2v-8.7c0-0.5-0.2-0.9-0.4-1.2c-0.1-0.1-0.2-0.2-0.2-0.3
		v-1.4c0-0.2,0.2-0.3,0.3-0.3h9.1c0.2,0,0.3,0.2,0.3,0.3V131.9z M68.4,127.9c0,0.1-0.1,0.2-0.2,0.2c-0.1,0-0.1,0.1-0.2,0.1H58
		c0,0,0,0-0.1,0h-0.1c-0.1-0.1-0.2-0.2-0.2-0.2c-0.1-0.2,0-0.3,0.1-0.4c0,0,0,0,0.1-0.1c0.2-0.1,0.2-0.2,0.4-0.3
		c0.1-0.1,0.2-0.1,0.2-0.2c0.2-0.1,0.2-0.2,0.4-0.2c0.1-0.1,0.2-0.2,0.4-0.2c1.2-0.6,2.4-0.9,3.7-0.9c1.9,0,3.7,0.7,5.2,1.9
		C68.4,127.5,68.4,127.7,68.4,127.9z M67.8,131.9c0,0.1-0.1,0.2-0.2,0.3c-0.2,0.3-0.4,0.7-0.4,1.2v8.7c0,0.5,0.2,0.9,0.4,1.2
		c0.1,0.1,0.2,0.2,0.2,0.3v3.2c0,0.2-0.2,0.3-0.3,0.3h-9.1c-0.2,0-0.3-0.2-0.3-0.3v-3.2c0-0.1,0.1-0.2,0.2-0.3
		c0.2-0.3,0.4-0.7,0.4-1.2v-8.7c0-0.5-0.2-0.9-0.4-1.2c-0.1-0.1-0.2-0.2-0.2-0.3v-1.4c0-0.2,0.2-0.3,0.3-0.3h9.1
		c0.2,0,0.3,0.2,0.3,0.3V131.9z M58.1,118.7c0-0.1,0.1-0.2,0.2-0.3c0.2-0.3,0.4-0.7,0.4-1.2v-7.1c0-0.5-0.2-0.9-0.4-1.2
		c-0.1-0.1-0.2-0.2-0.2-0.3v-1.5c0-0.2,0.2-0.3,0.3-0.3h9.1c0.2,0,0.3,0.2,0.3,0.3v1.4c0,0.1-0.1,0.2-0.2,0.3
		c-0.2,0.3-0.4,0.7-0.4,1.2v7.2c0,0.5,0.2,0.9,0.4,1.2c0.1,0.1,0.2,0.2,0.2,0.3v3.2c0,0.2-0.2,0.3-0.3,0.3h-9.1
		c-0.2,0-0.3-0.2-0.3-0.3L58.1,118.7L58.1,118.7z M76.8,118.7c0-0.1,0.1-0.2,0.2-0.3c0.2-0.3,0.4-0.7,0.4-1.2v-7.1
		c0-0.5-0.2-0.9-0.4-1.2c-0.1-0.1-0.2-0.2-0.2-0.3v-1.5c0-0.2,0.2-0.3,0.3-0.3h9.1c0.2,0,0.3,0.2,0.3,0.3v1.4c0,0.1-0.1,0.2-0.2,0.3
		c-0.2,0.3-0.4,0.7-0.4,1.2v7.2c0,0.5,0.2,0.9,0.4,1.2c0.1,0.1,0.2,0.2,0.2,0.3v3.2c0,0.2-0.2,0.3-0.3,0.3h-9.1
		c-0.2,0-0.3-0.2-0.3-0.3V118.7z M95.6,118.7c0-0.1,0.1-0.2,0.2-0.3c0.2-0.3,0.4-0.7,0.4-1.2v-7.1c0-0.5-0.2-0.9-0.4-1.2
		c-0.1-0.1-0.2-0.2-0.2-0.3v-1.5c0-0.2,0.2-0.3,0.3-0.3h9.1c0.2,0,0.3,0.2,0.3,0.3v1.4c0,0.1-0.1,0.2-0.2,0.3
		c-0.2,0.3-0.4,0.7-0.4,1.2v7.2c0,0.5,0.2,0.9,0.4,1.2c0.1,0.1,0.2,0.2,0.2,0.3v3.2c0,0.2-0.2,0.3-0.3,0.3h-9.1
		c-0.2,0-0.3-0.2-0.3-0.3V118.7z M114.3,118.7c0-0.1,0.1-0.2,0.2-0.3c0.2-0.3,0.4-0.7,0.4-1.2v-7.1c0-0.5-0.2-0.9-0.4-1.2
		c-0.1-0.1-0.2-0.2-0.2-0.3v-1.5c0-0.2,0.2-0.3,0.3-0.3h9.1c0.2,0,0.3,0.2,0.3,0.3v1.4c0,0.1-0.1,0.2-0.2,0.3
		c-0.2,0.3-0.4,0.7-0.4,1.2v7.2c0,0.5,0.2,0.9,0.4,1.2c0.1,0.1,0.2,0.2,0.2,0.3v3.2c0,0.2-0.2,0.3-0.3,0.3h-9.1
		c-0.2,0-0.3-0.2-0.3-0.3V118.7z M49.2,85.9h2.1c0,0,0.1,0,0.1,0.1v8.5c0,0.2,0.2,0.3,0.4,0.3h76.1c0.3,0.6,0.7,1.2,0.9,1.8
		c-4.8,0-79.5,0-79.5,0c-0.2,0-0.5,0.2-0.5,0.5v2.4c0,0.3,0.2,0.5,0.5,0.5h80.3c0,0,0,0.7,0,2.2H51.6c-0.2,0-0.2,0.1-0.2,0.2v47.7
		c0.2,0,85.2,0,85.2,0c0.4,0,0.7-0.3,0.7-0.7v-0.1c0-0.4,0.1-48.9,0.1-48.9c0-0.3,0-0.4,0-0.4c0.1-0.9,0.3-1.8,0.6-2.7
		c0.3-0.9,0.7-1.7,1.2-2.6h29.8h5.2h29.8c0.5,0.8,0.9,1.7,1.2,2.6s0.5,1.7,0.6,2.7c0,0,0,0.2,0,0.4c0,0,0.1,48.5,0.1,48.9v0.1
		c0,0.4,0.3,0.7,0.7,0.7l83.1-0.1h0.2h1.6c0.2,0,0.2-0.1,0.2-0.2v-47.4c0-0.2-0.1-0.2-0.2-0.2h-78.1c0-1.3,0-2.1,0-2.2h80.3
		c0.3,0,0.5-0.2,0.5-0.5v-2.4c0-0.2-0.2-0.5-0.5-0.5c0,0-74.7,0-79.5,0c0.2-0.6,0.6-1.2,0.9-1.8h76.2c0.2,0,0.4-0.1,0.4-0.3V86
		c0,0,0-0.1,0.1-0.1h2.1c0.3,0,0.5-0.2,0.5-0.5v-1.1c0-0.3-0.2-0.5-0.5-0.5H218c-0.3,0-0.7-0.1-1-0.2l-44.7-18.1v-2.9v-0.9
		c0.9-0.2,2.2-0.5,3.2-0.2c5.1,1.7,6.2,1.1,6.2,1c-0.9-1.2-0.6-3.9-0.6-3.9c0.3-2.4,0.2-2.9,0.2-3c-0.2,0.1-1.6,0.9-5-0.2
		c-1.8-0.6-3.2-0.7-4-0.8c0-0.5-0.4-0.8-0.9-0.8c-0.4,0.1-0.7,0.4-0.7,0.9v10.7l-44.7,18.1c-0.3,0.2-0.7,0.2-1,0.2H49.2
		c-0.3,0-0.5,0.2-0.5,0.5v1.1C48.7,85.7,48.9,85.9,49.2,85.9z"></path>
	<polygon class="st3" points="198.6,96.5 171.5,126.9 144.4,96.5 144.4,96.5 144,96.7 171.2,127.3 171.2,127.2 171.7,127.2
		171.8,127.3 198.9,96.8 198.9,96.7 	"></polygon>
	<path class="st3" d="M172.3,125.7h-1.7c-0.4,0-0.6,0.3-0.6,0.6v4.8c0,0.4,0.3,0.6,0.6,0.6h1.7c0.4,0,0.6-0.3,0.6-0.6v-4.8
		C172.9,125.9,172.7,125.7,172.3,125.7z"></path>
</g>
</svg>