<svg version="1.1" id="wh-gov-61ebe888e7ac7" xmlns="http://www.w3.org/2000/svg" xmlns:xlink="http://www.w3.org/1999/xlink" x="0px" y="0px" viewBox="0 0 1231 180" style="enable-background:new 0 0 1231 180;" xml:space="preserve">
<g>
	<g class="st0">
		<path d="M200.9,126h1.5l30-102.8l-18.7-9V4.5h60.7v9.7l-21.7,10.5L200.9,177h-22.5l-39-113.3H138L94.5,177H72L23.2,21.8L0,14.3
			V4.5h86.2v9l-20.2,6l30,107.3h0.7l33.7-90l-6-15.8l-18-7.5v-9h80.2v9l-20.2,6.8L200.9,126z"></path>
		<path d="M446.1,21l-22.5-6V4.5h88.5V15l-25.5,6v138.8l25.5,6v9.8h-88.5v-9.8l22.5-6V96h-72v63.8l22.5,6v9.8h-88.5v-9.8l25.5-6V21
			l-25.5-6V4.5h89.2V15l-22.5,6v57.8h72V21H446.1z"></path>
		<path d="M577.3,180c-9.7,0-17.2-7.5-17.2-17.2c0-9,7.5-17.2,17.2-17.2c9.7,0,17.2,7.5,17.2,17.2C594.5,171.7,587,180,577.3,180z"></path>
		<path d="M770.7,57.8c-16.5-31.5-32.2-45-56.2-45c-27.7,0-51.7,24.8-51.7,74.2c0,51,24.7,77.2,60.7,77.2c13.5,0,22.5-3.8,32.2-9
			v-43.5l-25.5-6V96h74.2v9.8l-22.5,6v66l-8.2,1.5l-13.5-13.5c-13.5,8.2-27,13.5-47.2,13.5c-46.5,0-83.2-33-83.2-86.2
			c0-51.8,38.2-92.2,89.2-92.2c16.5,0,30,3.8,40.5,9l8.2-9.8h9l1.5,57L770.7,57.8z"></path>
		<path d="M931.9,179.3c-54,0-83.2-41.2-83.2-89.3c0-48,33-89.2,84.7-89.2c54,0,83.2,41.2,83.2,89.2
			C1016.6,138.8,982.9,179.3,931.9,179.3z M929.7,12c-24.7,0-49.5,18-49.5,78c0,60,28.5,78,55.5,78c24.7,0,49.5-24.8,49.5-78
			C985.2,36.8,956.7,12,929.7,12z"></path>
		<path d="M1146.3,177h-13.5l-60.7-155.3l-24.7-6.8V4.5h81v9.7l-26.2,6l45,121.5l45-119.3l-20.2-7.5V4.5h59.2v9.7l-22.5,7.5
			L1146.3,177z"></path>
	</g>
</g>
</svg>